<svg width="60" height="60" viewBox="0 0 60 60" fill="none" xmlns="http://www.w3.org/2000/svg">
<circle cx="30" cy="30" r="30" fill="url(#paint0_linear_60_124)"/>
<path d="M40.0387 22.46C40.3444 21.474 40.4425 20.4354 40.3267 19.4096C40.211 18.3838 39.8839 17.3931 39.3662 16.5C39.2785 16.348 39.1522 16.2217 39.0001 16.1339C38.8481 16.0462 38.6756 16 38.5 16C37.3352 15.9976 36.186 16.2676 35.1442 16.7885C34.1024 17.3094 33.1969 18.0667 32.5 19H29.5C28.8031 18.0667 27.8976 17.3094 26.8558 16.7885C25.814 16.2676 24.6648 15.9976 23.5 16C23.3244 16 23.1519 16.0462 22.9999 16.1339C22.8478 16.2217 22.7215 16.348 22.6337 16.5C22.1161 17.3931 21.789 18.3838 21.6733 19.4096C21.5575 20.4354 21.6556 21.474 21.9612 22.46C21.3434 23.5384 21.0125 24.7572 21 26V27C21.0021 28.692 21.6163 30.3261 22.7293 31.6006C23.8422 32.875 25.3787 33.7038 27.055 33.9338C26.3708 34.8093 25.9994 35.8888 26 37V38H23C22.2044 38 21.4413 37.6839 20.8787 37.1213C20.3161 36.5587 20 35.7957 20 35C20 34.3434 19.8707 33.6932 19.6194 33.0866C19.3681 32.48 18.9998 31.9288 18.5355 31.4645C18.0712 31.0002 17.52 30.6319 16.9134 30.3806C16.3068 30.1293 15.6566 30 15 30C14.7348 30 14.4804 30.1054 14.2929 30.2929C14.1054 30.4804 14 30.7348 14 31C14 31.2652 14.1054 31.5196 14.2929 31.7071C14.4804 31.8947 14.7348 32 15 32C15.7956 32 16.5587 32.3161 17.1213 32.8787C17.6839 33.4413 18 34.2044 18 35C18 36.3261 18.5268 37.5979 19.4645 38.5356C20.4021 39.4732 21.6739 40 23 40H26V42C26 42.2652 26.1054 42.5196 26.2929 42.7071C26.4804 42.8947 26.7348 43 27 43C27.2652 43 27.5196 42.8947 27.7071 42.7071C27.8946 42.5196 28 42.2652 28 42V37C28 36.2044 28.3161 35.4413 28.8787 34.8787C29.4413 34.3161 30.2044 34 31 34C31.7956 34 32.5587 34.3161 33.1213 34.8787C33.6839 35.4413 34 36.2044 34 37V42C34 42.2652 34.1054 42.5196 34.2929 42.7071C34.4804 42.8947 34.7348 43 35 43C35.2652 43 35.5196 42.8947 35.7071 42.7071C35.8946 42.5196 36 42.2652 36 42V37C36.0006 35.8888 35.6292 34.8093 34.945 33.9338C36.6213 33.7038 38.1578 32.875 39.2707 31.6006C40.3837 30.3261 40.9979 28.692 41 27V26C40.9875 24.7572 40.6566 23.5384 40.0387 22.46ZM39 27C39 28.3261 38.4732 29.5979 37.5355 30.5356C36.5979 31.4732 35.3261 32 34 32H28C26.6739 32 25.4021 31.4732 24.4645 30.5356C23.5268 29.5979 23 28.3261 23 27V26C23.0123 25 23.3116 24.0247 23.8625 23.19C23.9652 23.0547 24.0317 22.8954 24.0558 22.7272C24.0798 22.559 24.0606 22.3875 24 22.2288C23.7395 21.557 23.6142 20.8405 23.6311 20.1202C23.6481 19.3999 23.807 18.69 24.0988 18.0313C24.9171 18.1193 25.7052 18.3904 26.4046 18.8245C27.104 19.2586 27.6966 19.8445 28.1388 20.5388C28.2288 20.6796 28.3528 20.7957 28.4994 20.8763C28.6459 20.9568 28.8103 20.9994 28.9775 21H33.0212C33.1891 21 33.3543 20.9578 33.5015 20.8772C33.6487 20.7966 33.7733 20.6802 33.8638 20.5388C34.3058 19.8444 34.8985 19.2584 35.5978 18.8244C36.2972 18.3903 37.0853 18.1192 37.9037 18.0313C38.1951 18.6902 38.3536 19.4001 38.3701 20.1204C38.3866 20.8407 38.2609 21.5572 38 22.2288C37.9396 22.386 37.9193 22.5558 37.9412 22.7228C37.963 22.8897 38.0262 23.0486 38.125 23.185C38.6813 24.0197 38.9851 24.9971 39 26V27Z" fill="black"/>
<defs>
<linearGradient id="paint0_linear_60_124" x1="0" y1="30" x2="60" y2="30" gradientUnits="userSpaceOnUse">
<stop stop-color="#EF617D"/>
<stop offset="1" stop-color="#DF2166"/>
</linearGradient>
</defs>
</svg>
