<svg width="74" height="74" viewBox="0 0 74 74" fill="none" xmlns="http://www.w3.org/2000/svg">
<path d="M37 71C55.7775 71 71 55.7775 71 37C71 18.2223 55.7775 3 37 3C18.2223 3 3 18.2223 3 37C3 55.7775 18.2223 71 37 71Z" stroke="white" stroke-width="5" stroke-linecap="round" stroke-linejoin="round"/>
<path d="M44.9332 60.8001V54.4659C45.0182 53.4136 44.8724 52.3555 44.5048 51.3624C44.1376 50.3692 43.5572 49.4635 42.8028 48.7056C49.92 47.9331 57.4 45.3066 57.4 33.2564C57.3993 30.1748 56.1821 27.2115 54 24.9798C55.0333 22.2839 54.9602 19.3041 53.796 16.6592C53.796 16.6592 51.1212 15.8868 44.9332 19.9257C39.738 18.5547 34.262 18.5547 29.0666 19.9257C22.8786 15.8868 20.204 16.6592 20.204 16.6592C19.0397 19.3041 18.9667 22.2839 20 24.9798C17.8016 27.2281 16.583 30.2181 16.6 33.3223C16.6 45.2845 24.08 47.911 31.1972 48.7716C30.4516 49.522 29.8764 50.4168 29.5093 51.3981C29.1422 52.379 28.9914 53.4241 29.0666 54.4659V60.8001" stroke="white" stroke-width="5" stroke-linecap="round" stroke-linejoin="round"/>
<path d="M29.0667 56.3863C22.2667 58.5341 16.6 56.3863 13.2 49.7651" stroke="white" stroke-width="5" stroke-linecap="round" stroke-linejoin="round"/>
</svg>
