<svg width="60" height="60" viewBox="0 0 60 60" fill="none" xmlns="http://www.w3.org/2000/svg">
<circle cx="30" cy="30" r="30" fill="url(#paint0_linear_60_159)"/>
<path d="M41 17H19C18.4696 17 17.9609 17.2107 17.5858 17.5858C17.2107 17.9609 17 18.4696 17 19V41C17 41.5304 17.2107 42.0391 17.5858 42.4142C17.9609 42.7893 18.4696 43 19 43H41C41.5304 43 42.0391 42.7893 42.4142 42.4142C42.7893 42.0391 43 41.5304 43 41V19C43 18.4696 42.7893 17.9609 42.4142 17.5858C42.0391 17.2107 41.5304 17 41 17ZM41 41H19V19H41V41ZM26 28V36C26 36.2652 25.8946 36.5196 25.7071 36.7071C25.5196 36.8946 25.2652 37 25 37C24.7348 37 24.4804 36.8946 24.2929 36.7071C24.1054 36.5196 24 36.2652 24 36V28C24 27.7348 24.1054 27.4804 24.2929 27.2929C24.4804 27.1054 24.7348 27 25 27C25.2652 27 25.5196 27.1054 25.7071 27.2929C25.8946 27.4804 26 27.7348 26 28ZM37 31.5V36C37 36.2652 36.8946 36.5196 36.7071 36.7071C36.5196 36.8946 36.2652 37 36 37C35.7348 37 35.4804 36.8946 35.2929 36.7071C35.1054 36.5196 35 36.2652 35 36V31.5C35 30.837 34.7366 30.2011 34.2678 29.7322C33.7989 29.2634 33.163 29 32.5 29C31.837 29 31.2011 29.2634 30.7322 29.7322C30.2634 30.2011 30 30.837 30 31.5V36C30 36.2652 29.8946 36.5196 29.7071 36.7071C29.5196 36.8946 29.2652 37 29 37C28.7348 37 28.4804 36.8946 28.2929 36.7071C28.1054 36.5196 28 36.2652 28 36V28C28.0012 27.7551 28.0923 27.5191 28.256 27.3369C28.4197 27.1546 28.6446 27.0388 28.888 27.0114C29.1314 26.9839 29.3764 27.0468 29.5765 27.188C29.7767 27.3292 29.918 27.539 29.9738 27.7775C30.6502 27.3186 31.4389 27.0526 32.2552 27.0081C33.0714 26.9637 33.8844 27.1424 34.6067 27.5251C35.329 27.9078 35.9335 28.48 36.3551 29.1803C36.7768 29.8806 36.9997 30.6825 37 31.5ZM26.5 24.5C26.5 24.7967 26.412 25.0867 26.2472 25.3334C26.0824 25.58 25.8481 25.7723 25.574 25.8858C25.2999 25.9994 24.9983 26.0291 24.7074 25.9712C24.4164 25.9133 24.1491 25.7704 23.9393 25.5607C23.7296 25.3509 23.5867 25.0836 23.5288 24.7926C23.4709 24.5017 23.5006 24.2001 23.6142 23.926C23.7277 23.6519 23.92 23.4176 24.1666 23.2528C24.4133 23.088 24.7033 23 25 23C25.3978 23 25.7794 23.158 26.0607 23.4393C26.342 23.7206 26.5 24.1022 26.5 24.5Z" fill="black"/>
<defs>
<linearGradient id="paint0_linear_60_159" x1="0" y1="30" x2="60" y2="30" gradientUnits="userSpaceOnUse">
<stop stop-color="#EF617D"/>
<stop offset="1" stop-color="#DF2166"/>
</linearGradient>
</defs>
</svg>
