<svg width="60" height="60" viewBox="0 0 60 60" fill="none" xmlns="http://www.w3.org/2000/svg">
<circle cx="30" cy="30" r="30" fill="url(#paint0_linear_60_156)"/>
<path d="M30 24C28.8133 24 27.6533 24.3519 26.6666 25.0112C25.6799 25.6705 24.9108 26.6075 24.4567 27.7039C24.0026 28.8003 23.8838 30.0067 24.1153 31.1705C24.3468 32.3344 24.9182 33.4035 25.7574 34.2426C26.5965 35.0818 27.6656 35.6532 28.8295 35.8847C29.9933 36.1162 31.1997 35.9974 32.2961 35.5433C33.3925 35.0892 34.3295 34.3201 34.9888 33.3334C35.6481 32.3467 36 31.1867 36 30C35.9983 28.4092 35.3657 26.884 34.2408 25.7592C33.116 24.6343 31.5908 24.0017 30 24ZM30 34C29.2089 34 28.4355 33.7654 27.7777 33.3259C27.1199 32.8864 26.6072 32.2616 26.3045 31.5307C26.0017 30.7998 25.9225 29.9956 26.0769 29.2196C26.2312 28.4437 26.6122 27.731 27.1716 27.1716C27.731 26.6122 28.4437 26.2312 29.2196 26.0769C29.9956 25.9225 30.7998 26.0017 31.5307 26.3045C32.2616 26.6072 32.8864 27.1199 33.3259 27.7777C33.7654 28.4355 34 29.2089 34 30C34 31.0609 33.5786 32.0783 32.8284 32.8284C32.0783 33.5786 31.0609 34 30 34ZM36 17H24C22.1441 17.002 20.3648 17.7401 19.0524 19.0524C17.7401 20.3648 17.002 22.1441 17 24V36C17.002 37.8559 17.7401 39.6352 19.0524 40.9476C20.3648 42.2599 22.1441 42.998 24 43H36C37.8559 42.998 39.6352 42.2599 40.9476 40.9476C42.2599 39.6352 42.998 37.8559 43 36V24C42.998 22.1441 42.2599 20.3648 40.9476 19.0524C39.6352 17.7401 37.8559 17.002 36 17ZM41 36C41 37.3261 40.4732 38.5979 39.5355 39.5355C38.5979 40.4732 37.3261 41 36 41H24C22.6739 41 21.4021 40.4732 20.4645 39.5355C19.5268 38.5979 19 37.3261 19 36V24C19 22.6739 19.5268 21.4021 20.4645 20.4645C21.4021 19.5268 22.6739 19 24 19H36C37.3261 19 38.5979 19.5268 39.5355 20.4645C40.4732 21.4021 41 22.6739 41 24V36ZM38 23.5C38 23.7967 37.912 24.0867 37.7472 24.3334C37.5824 24.58 37.3481 24.7723 37.074 24.8858C36.7999 24.9994 36.4983 25.0291 36.2074 24.9712C35.9164 24.9133 35.6491 24.7704 35.4393 24.5607C35.2296 24.3509 35.0867 24.0836 35.0288 23.7926C34.9709 23.5017 35.0007 23.2001 35.1142 22.926C35.2277 22.6519 35.42 22.4176 35.6666 22.2528C35.9133 22.088 36.2033 22 36.5 22C36.8978 22 37.2794 22.158 37.5607 22.4393C37.842 22.7206 38 23.1022 38 23.5Z" fill="black"/>
<defs>
<linearGradient id="paint0_linear_60_156" x1="0" y1="30" x2="60" y2="30" gradientUnits="userSpaceOnUse">
<stop stop-color="#EF617D"/>
<stop offset="1" stop-color="#DF2166"/>
</linearGradient>
</defs>
</svg>
